<?xml version="1.0" standalone="no"?>
<!DOCTYPE svg PUBLIC "-//W3C//DTD SVG 20010904//EN"
 "http://www.w3.org/TR/2001/REC-SVG-20010904/DTD/svg10.dtd">
<svg version="1.0" xmlns="http://www.w3.org/2000/svg"
 width="2236.000000pt" height="437.000000pt" viewBox="0 0 2236.000000 437.000000"
 preserveAspectRatio="xMidYMid meet">

<g transform="translate(0.000000,437.000000) scale(0.100000,-0.100000)"
fill="#000000" stroke="none">
<path d="M515 4355 c-115 -24 -227 -86 -315 -174 -134 -135 -190 -280 -190
-490 0 -169 31 -273 112 -378 91 -119 258 -195 629 -288 310 -78 425 -123 504
-200 122 -119 138 -318 38 -507 -85 -163 -256 -247 -476 -236 -178 10 -337 87
-474 232 -117 123 -191 269 -242 478 l-26 108 -37 0 -38 0 0 -440 0 -440 43 0
c40 1 45 4 102 75 33 42 70 87 82 102 l22 27 23 -21 c39 -36 160 -109 223
-136 102 -43 175 -58 310 -64 261 -11 436 54 592 220 115 124 171 259 180 437
11 205 -35 339 -156 461 -121 121 -231 167 -640 270 -312 78 -409 117 -478
192 -64 70 -86 140 -87 277 -1 104 2 120 25 170 52 112 163 204 283 236 68 18
208 18 280 -1 162 -42 314 -168 398 -331 50 -96 103 -234 133 -346 l18 -68 38
0 39 0 0 400 0 400 -45 0 c-45 0 -46 -1 -111 -84 l-67 -84 -71 52 c-97 73
-147 100 -241 131 -100 34 -271 43 -380 20z"/>
<path d="M1570 4286 l0 -33 78 -5 c96 -6 164 -34 186 -77 14 -27 16 -138 16
-1001 0 -1059 3 -1011 -57 -1040 -15 -7 -67 -15 -115 -18 l-88 -4 0 -34 0 -34
365 0 365 0 0 35 0 35 -47 0 c-62 0 -119 16 -144 41 -18 18 -19 35 -19 263 l0
244 76 68 c43 39 78 63 82 58 4 -6 97 -138 208 -295 111 -156 204 -293 208
-305 12 -38 -31 -65 -118 -71 l-76 -6 0 -33 0 -34 340 0 340 0 0 34 c0 32 -1
33 -49 39 -105 12 -94 1 -400 437 -155 221 -281 405 -279 409 2 4 89 91 195
194 207 203 239 224 364 247 35 7 74 14 87 16 17 3 22 11 22 34 l0 30 -350 0
-350 0 0 -29 c0 -31 18 -41 75 -41 46 0 104 -19 126 -41 11 -11 19 -33 19 -51
1 -30 -23 -57 -257 -285 l-258 -253 -3 770 -2 770 -270 0 -270 0 0 -34z"/>
<path d="M7010 4286 l0 -33 93 -5 c105 -6 148 -23 177 -71 19 -30 20 -53 20
-477 l0 -445 -34 50 c-82 122 -193 197 -318 214 -173 24 -346 -46 -469 -188
-139 -161 -198 -355 -186 -620 13 -320 144 -551 372 -658 56 -26 69 -28 185
-28 121 0 128 1 190 32 88 44 149 99 208 187 l49 74 7 -52 c14 -122 61 -193
141 -215 27 -7 224 -11 608 -11 l567 0 0 34 0 34 -106 4 c-105 4 -106 4 -135
36 l-29 32 0 650 0 650 -275 0 -275 0 0 -35 0 -35 79 0 c87 0 134 -12 170 -44
51 -45 51 -46 51 -623 0 -492 -2 -541 -18 -573 -26 -53 -65 -62 -262 -58 -189
3 -220 13 -255 83 -20 39 -20 63 -23 1083 l-2 1042 -265 0 -265 0 0 -34z m6
-863 c105 -36 207 -178 256 -358 18 -69 21 -107 22 -280 1 -225 -15 -316 -76
-444 -45 -96 -144 -191 -222 -215 -183 -57 -338 75 -393 334 -27 125 -26 540
1 655 41 175 119 280 236 316 44 13 125 10 176 -8z"/>
<path d="M10140 4285 l0 -35 88 0 c100 0 146 -10 179 -42 l23 -21 0 -946 0
-946 -24 -51 c-106 -227 -423 -230 -533 -6 l-28 57 -5 465 c-6 518 -5 509 -78
604 -48 63 -142 120 -235 141 -104 25 -298 22 -400 -4 -155 -41 -289 -138
-347 -253 -61 -123 -33 -251 66 -298 146 -71 280 78 199 221 -51 91 -56 107
-45 149 22 82 133 136 280 134 63 0 97 -6 132 -22 66 -29 122 -84 149 -145 21
-46 24 -70 27 -214 l4 -162 -39 -6 c-336 -55 -543 -128 -701 -247 -232 -174
-226 -497 12 -613 73 -35 155 -48 281 -43 166 7 261 52 399 190 38 38 69 67
70 66 76 -187 217 -268 461 -268 81 0 137 7 215 25 97 23 125 25 358 25 l252
0 0 35 c0 32 -3 34 -37 40 -163 25 -214 48 -263 120 -61 89 -60 72 -58 1050
l3 889 379 -1029 c208 -567 386 -1047 394 -1068 14 -38 15 -38 64 -35 l50 3
362 1062 c198 584 364 1065 369 1069 4 4 7 -435 7 -975 0 -826 -2 -987 -14
-1016 -21 -50 -64 -67 -178 -73 l-98 -5 0 -33 0 -34 450 0 450 0 0 34 0 33
-103 5 c-121 7 -162 23 -183 73 -12 29 -14 186 -13 992 0 715 3 967 12 992 21
61 53 75 178 79 l109 4 0 34 0 34 -338 0 -338 0 -308 -912 c-169 -502 -311
-916 -315 -921 -4 -4 -160 407 -347 913 l-339 920 -327 0 -328 0 0 -35z m-550
-1597 c0 -93 -6 -179 -14 -220 -38 -178 -156 -321 -305 -368 -101 -32 -175
-23 -235 30 -100 89 -113 315 -25 452 65 101 227 185 459 237 133 30 120 44
120 -131z"/>
<path d="M14190 4286 l0 -33 78 -5 c88 -5 145 -28 176 -71 21 -28 21 -37 24
-940 2 -665 0 -927 -8 -966 -9 -40 -23 -65 -54 -99 -55 -60 -104 -82 -189 -82
-106 0 -173 38 -220 125 -21 39 -22 52 -27 525 l-5 485 -31 65 c-77 161 -219
231 -469 231 -209 0 -344 -46 -465 -157 -73 -68 -106 -122 -120 -193 -19 -100
18 -188 94 -222 83 -38 169 -11 205 63 30 63 27 97 -20 184 -47 90 -47 123 2
179 60 68 232 101 350 67 71 -21 139 -78 174 -147 29 -57 30 -63 34 -221 l3
-163 -38 -6 c-234 -37 -392 -80 -530 -145 -161 -74 -261 -162 -313 -270 -22
-47 -26 -68 -26 -150 0 -112 19 -164 84 -229 78 -78 179 -111 336 -110 186 1
286 44 428 185 l82 81 18 -39 c31 -64 112 -144 180 -178 106 -52 209 -59 362
-24 43 10 139 14 343 14 l282 0 0 35 c0 34 -1 35 -42 35 -68 1 -121 17 -145
45 -22 25 -23 32 -23 263 l0 238 62 54 c34 30 69 61 79 68 16 11 38 -17 219
-273 111 -158 207 -299 213 -316 9 -23 8 -32 -4 -45 -19 -19 -78 -33 -136 -34
-42 0 -43 -1 -43 -35 l0 -35 710 0 710 0 0 35 0 35 -80 0 c-85 0 -143 17 -166
48 -11 14 -13 217 -14 1090 l0 1072 -275 0 -275 0 0 -35 0 -35 83 0 c94 0 155
-23 191 -73 21 -28 21 -37 24 -993 3 -1049 4 -1012 -53 -1050 -56 -37 -267
-31 -327 10 -21 13 -136 169 -310 416 l-277 395 172 173 c95 95 192 186 216
202 59 40 137 68 213 77 62 8 63 9 66 41 l3 32 -345 0 -346 0 0 -30 c0 -26 4
-30 35 -35 19 -3 52 -8 72 -11 52 -8 92 -31 105 -59 8 -19 7 -31 -8 -59 -11
-19 -129 -142 -264 -273 l-245 -238 -3 773 -2 772 -265 0 -265 0 0 -34z m-470
-1593 c0 -91 -6 -175 -15 -218 -43 -205 -198 -369 -369 -390 -75 -10 -133 9
-182 59 -58 57 -78 129 -72 248 13 224 153 341 503 423 150 35 135 49 135
-122z"/>
<path d="M8142 4030 c-47 -29 -72 -76 -72 -135 0 -93 62 -155 155 -155 93 0
155 62 155 155 0 93 -62 155 -155 155 -32 0 -62 -7 -83 -20z"/>
<path d="M13080 4031 c-22 -11 -44 -36 -59 -64 -70 -136 75 -277 215 -211 43
21 84 88 84 138 0 50 -32 110 -73 135 -44 27 -119 28 -167 2z"/>
<path d="M13640 4028 c-98 -67 -90 -223 14 -272 111 -53 231 24 229 147 -1 85
-67 147 -158 147 -38 0 -61 -6 -85 -22z"/>
<path d="M3759 3520 c-155 -15 -285 -73 -385 -171 -72 -71 -98 -126 -102 -219
-4 -95 20 -144 88 -177 54 -28 92 -29 148 -3 34 15 47 29 64 66 28 64 21 116
-27 192 -32 52 -36 67 -31 97 17 89 120 147 266 149 148 2 242 -49 297 -162
27 -54 28 -65 32 -219 l3 -162 -38 -6 c-258 -42 -417 -87 -561 -160 -222 -111
-325 -258 -310 -442 12 -152 122 -262 293 -294 88 -17 267 -6 333 19 78 31
155 85 236 167 l71 72 28 -53 c58 -110 174 -187 311 -206 60 -9 90 -7 171 8
80 15 159 19 412 22 l312 3 0 34 0 35 -56 0 c-88 0 -143 18 -165 54 -18 29
-19 56 -19 426 0 426 3 453 55 568 33 72 123 164 188 192 153 66 314 14 384
-124 46 -90 52 -166 53 -604 0 -445 -1 -457 -60 -487 -18 -9 -66 -19 -106 -22
l-74 -6 0 -33 0 -34 360 0 360 0 0 35 0 35 -57 0 c-77 0 -124 14 -154 46 l-24
26 -6 476 c-6 518 -5 516 -66 637 -77 154 -222 228 -408 210 -170 -16 -319
-109 -419 -260 l-26 -40 0 138 0 137 -255 0 -255 0 0 -24 c0 -22 4 -24 69 -28
76 -6 122 -26 155 -71 21 -28 21 -38 24 -555 3 -593 4 -580 -70 -647 -55 -50
-95 -65 -178 -65 -110 0 -183 42 -233 135 -21 39 -22 52 -27 520 l-5 480 -32
67 c-69 146 -197 217 -418 231 -38 3 -104 1 -146 -3z m351 -833 c0 -120 -4
-171 -20 -231 -39 -155 -132 -280 -251 -335 -152 -73 -278 -40 -340 87 -20 40
-23 62 -23 152 0 86 4 116 23 163 53 136 204 228 476 292 150 35 135 50 135
-128z"/>
<path d="M17139 3520 c-155 -15 -285 -73 -385 -171 -72 -71 -98 -126 -102
-219 -4 -95 20 -144 88 -177 54 -28 92 -29 148 -3 34 15 47 29 64 66 28 64 21
116 -27 192 -32 52 -36 67 -31 97 17 89 120 147 266 149 148 2 242 -49 297
-162 27 -54 28 -65 32 -219 l3 -162 -38 -6 c-258 -42 -417 -87 -561 -160 -222
-111 -325 -258 -310 -442 12 -152 122 -262 293 -294 88 -17 267 -6 333 19 78
31 155 85 236 167 l71 72 28 -53 c35 -67 111 -138 181 -170 102 -47 214 -53
360 -18 46 10 145 14 418 14 l357 0 0 35 0 35 -102 0 c-128 1 -176 11 -206 46
l-24 27 4 301 4 301 41 156 c51 192 93 300 141 364 67 88 159 134 185 93 9
-13 6 -30 -13 -74 -33 -81 -37 -141 -12 -197 24 -54 57 -78 116 -84 62 -7 110
18 144 76 23 40 27 57 27 126 -1 59 -6 92 -21 125 -60 130 -205 173 -352 105
-111 -51 -199 -190 -264 -413 l-33 -116 -3 267 -2 267 -250 0 -250 0 0 -35 0
-35 83 0 c103 0 143 -18 175 -80 22 -44 22 -45 22 -552 0 -555 1 -542 -59
-610 -49 -56 -106 -78 -201 -78 -121 0 -192 39 -243 135 -21 39 -22 52 -27
520 l-5 480 -32 67 c-69 146 -197 217 -418 231 -38 3 -104 1 -146 -3z m351
-833 c0 -120 -4 -171 -20 -231 -39 -155 -132 -280 -251 -335 -152 -73 -278
-40 -340 87 -20 40 -23 62 -23 152 0 86 4 116 23 163 53 136 204 228 476 292
150 35 135 50 135 -128z"/>
<path d="M21469 3520 c-155 -15 -285 -73 -385 -171 -72 -71 -98 -126 -102
-219 -4 -95 20 -144 88 -177 54 -28 92 -29 148 -3 34 15 47 29 64 66 28 64 21
116 -27 192 -32 52 -36 67 -31 97 17 89 120 147 266 149 148 2 242 -49 297
-162 27 -54 28 -65 32 -219 l3 -162 -38 -6 c-258 -42 -417 -87 -561 -160 -222
-111 -325 -258 -310 -442 12 -150 121 -262 287 -293 80 -15 226 -11 301 8 86
23 165 71 255 157 l73 71 36 -72 c60 -122 137 -174 257 -174 69 0 130 21 192
67 l50 36 -28 23 -27 24 -39 -20 c-48 -24 -108 -25 -136 -2 -12 9 -30 33 -40
52 -18 32 -19 73 -24 540 l-5 505 -32 67 c-69 146 -197 217 -418 231 -38 3
-104 1 -146 -3z m351 -833 c0 -177 -18 -267 -72 -370 -109 -204 -354 -299
-482 -186 -61 53 -80 109 -80 229 0 87 4 115 23 163 54 136 204 228 476 292
150 35 135 50 135 -128z"/>
<path d="M20083 3495 c-128 -28 -234 -99 -323 -216 l-55 -72 -3 136 -3 137
-244 0 -245 0 0 -25 c0 -24 3 -25 53 -25 76 0 136 -32 165 -90 l22 -44 0 -552
c0 -550 0 -551 -22 -579 -29 -37 -76 -55 -143 -55 l-55 0 0 -35 0 -35 355 0
355 0 0 35 0 35 -62 1 c-79 0 -125 16 -152 52 -20 28 -21 38 -21 425 0 349 2
405 18 461 66 240 256 373 451 317 116 -34 184 -136 206 -308 14 -118 12 -823
-3 -868 -17 -48 -60 -70 -152 -77 l-75 -6 0 -33 0 -34 360 0 360 0 0 34 0 33
-83 5 c-46 3 -93 11 -105 17 -49 26 -50 36 -54 531 l-4 465 -27 80 c-59 178
-157 270 -314 295 -76 13 -124 11 -200 -5z"/>
<path d="M11915 813 c-56 -12 -90 -28 -121 -56 -62 -53 -82 -120 -63 -207 17
-81 60 -121 205 -190 124 -60 164 -93 164 -135 0 -36 -35 -71 -84 -84 -77 -19
-142 3 -197 67 l-34 39 -63 -34 -62 -35 17 -30 c26 -43 79 -87 143 -117 48
-22 68 -26 155 -26 90 0 106 3 158 28 81 40 111 87 115 182 5 85 -16 135 -73
182 -36 30 -58 42 -197 107 -85 40 -101 59 -96 114 2 31 9 40 39 56 32 17 42
18 77 8 22 -7 51 -23 64 -37 12 -14 26 -25 31 -25 4 0 32 16 62 36 l54 36 -20
27 c-57 73 -181 115 -274 94z"/>
<path d="M8860 418 c-95 -216 -175 -396 -177 -400 -2 -5 31 -8 75 -8 l79 0 17
45 18 45 168 0 169 0 20 -45 20 -45 81 0 c45 0 80 4 78 9 -35 95 -355 791
-363 791 -7 0 -90 -177 -185 -392z m273 -135 l26 -63 -115 0 c-63 0 -114 3
-114 8 0 4 22 63 49 132 28 69 53 134 56 145 5 15 15 -3 39 -70 18 -49 45
-118 59 -152z"/>
<path d="M13369 419 c-96 -215 -175 -395 -177 -400 -2 -5 32 -9 76 -9 l79 0
17 45 18 45 167 0 167 0 22 -45 22 -45 81 0 c44 0 79 4 77 8 -71 173 -356 792
-364 792 -6 0 -89 -176 -185 -391z m269 -126 l31 -73 -115 0 c-63 0 -114 4
-114 9 0 5 17 51 39 102 21 52 44 112 51 134 20 64 22 63 51 -21 15 -43 41
-112 57 -151z"/>
<path d="M7020 405 l0 -395 80 0 80 0 0 100 0 100 68 0 67 0 64 -100 63 -100
90 0 c69 0 87 3 82 13 -5 6 -41 62 -81 124 l-72 112 34 20 c143 84 149 350 11
456 -69 53 -129 65 -316 65 l-170 0 0 -395z m351 238 c74 -43 98 -134 57 -212
-32 -62 -72 -81 -170 -81 l-78 0 0 161 0 162 80 -6 c51 -3 91 -12 111 -24z"/>
<path d="M7902 408 l3 -393 273 -3 272 -2 0 70 0 70 -195 0 -195 0 0 70 0 70
160 0 160 0 0 70 0 70 -160 0 -161 0 3 118 3 117 183 3 182 2 0 65 0 65 -265
0 -265 0 2 -392z"/>
<path d="M9660 405 l0 -395 255 0 255 0 0 70 0 70 -177 2 -178 3 -3 323 -2
322 -75 0 -75 0 0 -395z"/>
<path d="M10890 405 l0 -395 275 0 275 0 0 70 0 70 -195 0 -195 0 0 70 0 70
160 0 160 0 0 70 0 70 -160 0 -160 0 0 120 0 120 185 0 185 0 0 65 0 65 -265
0 -265 0 0 -395z"/>
<path d="M12460 735 l0 -64 118 -3 117 -3 3 -327 2 -328 75 0 75 0 2 328 3
327 118 3 117 3 0 64 0 65 -315 0 -315 0 0 -65z"/>
<path d="M14020 735 l0 -64 118 -3 117 -3 3 -327 2 -328 75 0 75 0 2 328 3
327 118 3 117 3 0 64 0 65 -315 0 -315 0 0 -65z"/>
<path d="M14900 405 l0 -395 275 0 275 0 0 70 0 70 -195 0 -195 0 0 70 0 70
160 0 160 0 0 70 0 70 -160 0 -160 0 0 120 0 120 185 0 185 0 0 65 0 65 -265
0 -265 0 0 -395z"/>
<path d="M2820 385 l0 -45 1566 0 1565 0 -3 43 -3 42 -1562 3 -1563 2 0 -45z"/>
<path d="M16490 385 l0 -45 1566 0 1565 0 -3 43 -3 42 -1562 3 -1563 2 0 -45z"/>
</g>
</svg>
